<?xml version="1.0" encoding="UTF-8" standalone="no"?>
<!DOCTYPE svg PUBLIC "-//W3C//DTD SVG 1.1//EN" "http://www.w3.org/Graphics/SVG/1.1/DTD/svg11.dtd">
<!-- Created with Vectornator (http://vectornator.io/) -->
<svg height="100%" stroke-miterlimit="10" style="fill-rule:nonzero;clip-rule:evenodd;stroke-linecap:round;stroke-linejoin:round;" version="1.1" viewBox="0 0 2834.88 2448.3" width="100%" xml:space="preserve" xmlns="http://www.w3.org/2000/svg" xmlns:xlink="http://www.w3.org/1999/xlink">
<defs/>
<clipPath id="ArtboardFrame">
<rect height="2448.3" width="2834.88" x="0" y="0"/>
</clipPath>
<g clip-path="url(#ArtboardFrame)" id="Untitled">
<path d="M1652.49 1044.33C1795.91 1248.39 1867.63 1495.79 1838.45 1775.16C1801.63 2127.53 1416.29 2385.39 1416.29 2385.39C1416.29 2385.39 1019.9 2098.08 994.141 1775.16C971.797 1495.25 1040.89 1248.15 1181.95 1044.33L1652.49 1044.33" fill="#ffc712" fill-rule="evenodd" opacity="1" stroke="none"/>
<path d="M1685.83 1020.91C1834.67 1232.7 1909.25 1489.45 1878.95 1779.39C1840.43 2148.16 1438.94 2419.24 1438.94 2419.24C1424.77 2428.72 1406.19 2428.38 1392.38 2418.37C1392.38 2418.37 1245.24 2311.81 1121.84 2154.61C1037.19 2046.8 964.471 1915.38 953.539 1778.39C930.398 1488.34 1002.29 1232.36 1148.46 1021.15C1156.07 1010.17 1168.58 1003.6 1181.95 1003.6L1652.49 1003.6C1665.76 1003.6 1678.2 1010.07 1685.83 1020.91ZM1631.09 1085.05L1203.55 1085.05C1075.65 1278.07 1013.85 1510.14 1034.74 1771.92C1044.43 1893.28 1110.91 2008.79 1185.91 2104.32C1273.22 2215.54 1373.13 2299.86 1417.22 2334.79C1499.17 2274.24 1768.22 2055.31 1797.93 1770.93C1825.2 1510 1761.1 1278.02 1631.09 1085.05" fill="#000000" fill-rule="evenodd" opacity="1" stroke="none"/>
<path d="M1417.43 347.126C1664.24 346.597 1746.44 501.615 1746.44 691.897C1746.44 882.196 1599.01 1036.69 1417.43 1036.69C1235.87 1036.69 1088.45 882.196 1088.45 691.897C1088.45 501.615 1175.99 347.638 1417.43 347.126" fill="#000000" fill-rule="evenodd" opacity="1" stroke="none"/>
<path d="M470.16 1397.18C238.674 1368.43 32.4153 1178.42 40.9766 972.236C49.0871 776.971 274.327 619.448 482.373 593.369C867.68 545.062 1178.66 739.013 1409.2 1008.99L1409.95 1009C1409.83 1009.15 1409.7 1009.3 1409.57 1009.45C1409.7 1009.61 1409.81 1009.77 1409.94 1009.93L1409.18 1009.91C1175.62 1264.61 855.528 1445.06 470.16 1397.18" fill="#ebebeb" fill-rule="evenodd" opacity="1" stroke="none"/>
<path d="M1436.07 977.747C1440.62 981.537 1444.35 986.352 1446.93 991.941C1449.61 997.725 1450.84 1003.94 1450.67 1010.08C1450.64 1016.22 1449.23 1022.4 1446.39 1028.11C1443.61 1033.67 1439.67 1038.4 1434.94 1042.07C1193.16 1303.65 862.308 1486.96 465.133 1437.6C212.577 1406.22-9.05573 1195.51 0.284984 970.549C3.93109 882.742 45.686 801.286 110.581 733.808C203.337 637.35 343.592 569.717 477.307 552.956C874.977 503.096 1197.18 700.019 1436.07 977.747ZM1354.69 1008.46C1135.5 762.821 845.152 588.927 487.438 633.788C371.498 648.322 249.723 706.632 169.297 790.27C118.731 842.841 84.5128 905.515 81.6739 973.928C73.8862 1161.35 264.758 1330.62 475.181 1356.77C833.095 1401.24 1132.05 1239.98 1354.69 1008.46" fill="#000000" fill-rule="evenodd" opacity="1" stroke="none"/>
<path d="M875.69 1617.07C700.833 1677.74 487.399 1614.81 421.201 1465.04C358.522 1323.21 463.624 1132.11 602.572 1040.6C859.914 871.124 1149.27 900.154 1408.03 1011.51L1408.57 1011.25C1408.54 1011.41 1408.5 1011.55 1408.46 1011.71C1408.6 1011.78 1408.74 1011.85 1408.88 1011.92L1408.36 1012.18C1331.38 1275.37 1166.8 1516.05 875.69 1617.07" fill="#ebebeb" fill-rule="evenodd" opacity="1" stroke="none"/>
<path d="M1418.9 971.846C1424.4 973.288 1429.63 975.893 1434.21 979.6C1439.14 983.603 1442.97 988.59 1445.53 994.151C1448.2 999.651 1449.64 1005.78 1449.61 1012.12C1449.58 1018.09 1448.26 1023.85 1445.84 1029.05C1364.62 1302.29 1191.61 1550.54 889.044 1655.54C694.12 1723.19 457.74 1648.47 383.95 1481.5C354.954 1415.89 355.956 1341.19 379.14 1268.37C411.905 1165.44 489.325 1066.42 580.172 1006.59C848.102 830.127 1149.09 857.046 1418.9 971.846ZM1358.63 1035.13C1120.93 940.623 859.001 920.489 624.972 1074.61C549.082 1124.6 484.132 1207.09 456.761 1293.08C439.85 1346.19 437.306 1400.72 458.459 1448.58C517.063 1581.18 707.529 1632.31 862.336 1578.59C1127.24 1486.66 1281.3 1272.6 1358.63 1035.13" fill="#000000" fill-rule="evenodd" opacity="1" stroke="none"/>
<path d="M2364.72 1397.18C2596.2 1368.43 2802.46 1178.42 2793.9 972.236C2785.79 776.971 2560.55 619.448 2352.5 593.369C1967.2 545.062 1656.21 739.013 1425.67 1008.99L1424.93 1009C1425.06 1009.15 1425.19 1009.3 1425.3 1009.45C1425.19 1009.61 1425.06 1009.77 1424.94 1009.93L1425.68 1009.91C1659.26 1264.61 1979.36 1445.06 2364.72 1397.18" fill="#ebebeb" fill-rule="evenodd" opacity="1" stroke="none"/>
<path d="M1398.81 977.747C1637.7 700.019 1959.9 503.096 2357.56 552.956C2491.29 569.717 2631.54 637.35 2724.3 733.808C2789.19 801.286 2830.95 882.742 2834.6 970.549C2843.93 1195.51 2622.31 1406.22 2369.75 1437.6C1972.57 1486.96 1641.72 1303.65 1399.93 1042.07C1395.22 1038.4 1391.27 1033.67 1388.49 1028.11C1385.64 1022.4 1384.23 1016.22 1384.22 1010.08C1384.05 1003.94 1385.27 997.725 1387.95 991.941C1390.51 986.352 1394.26 981.537 1398.81 977.747ZM1480.19 1008.46C1702.81 1239.98 2001.77 1401.24 2359.7 1356.77C2570.12 1330.62 2760.99 1161.35 2753.2 973.928C2750.36 905.515 2716.15 842.841 2665.59 790.27C2585.16 706.632 2463.37 648.322 2347.43 633.788C1989.73 588.927 1699.38 762.821 1480.19 1008.46" fill="#000000" fill-rule="evenodd" opacity="1" stroke="none"/>
<path d="M1959.18 1617.07C2134.05 1677.74 2347.48 1614.81 2413.67 1465.04C2476.35 1323.21 2371.24 1132.11 2232.3 1040.6C1974.97 871.124 1685.6 900.154 1426.84 1011.51L1426.31 1011.25C1426.34 1011.41 1426.39 1011.55 1426.41 1011.71C1426.27 1011.78 1426.13 1011.85 1425.98 1011.92L1426.52 1012.18C1503.49 1275.37 1668.09 1516.05 1959.18 1617.07" fill="#ebebeb" fill-rule="evenodd" opacity="1" stroke="none"/>
<path d="M1389.35 994.151C1391.91 988.59 1395.73 983.603 1400.66 979.6C1405.25 975.893 1410.48 973.288 1415.98 971.846C1685.8 857.046 1986.78 830.127 2254.7 1006.59C2345.55 1066.42 2422.98 1165.44 2455.73 1268.37C2478.92 1341.19 2479.92 1415.89 2450.92 1481.5C2377.13 1648.47 2140.76 1723.19 1945.82 1655.54C1643.26 1550.54 1470.26 1302.29 1389.05 1029.05C1386.62 1023.85 1385.29 1018.09 1385.25 1012.12C1385.23 1005.78 1386.68 999.651 1389.35 994.151ZM1476.25 1035.13C1553.58 1272.6 1707.64 1486.66 1972.53 1578.59C2127.35 1632.31 2317.82 1581.18 2376.42 1448.58C2397.56 1400.72 2395.03 1346.19 2378.11 1293.08C2350.75 1207.09 2285.8 1124.6 2209.9 1074.61C1975.87 920.489 1713.95 940.623 1476.23 1035.13" fill="#000000" fill-rule="evenodd" opacity="1" stroke="none"/>
<path d="M1825.72 1670.69C1847.07 1663.62 1870.13 1675.2 1877.18 1696.55C1884.25 1717.9 1872.66 1740.96 1851.32 1748.01C1568.39 1841.65 1279.33 1844.08 983.782 1748.08C962.389 1741.14 950.677 1718.15 957.613 1696.77C964.555 1675.39 987.556 1663.67 1008.93 1670.62C1287.22 1761 1559.35 1758.84 1825.72 1670.69" fill="#000000" fill-rule="evenodd" opacity="1" stroke="none"/>
<path d="M1753.73 1963.97C1775.42 1958.08 1797.82 1970.91 1803.7 1992.6C1809.59 2014.29 1796.77 2036.69 1775.08 2042.58C1540.94 2106.16 1302.62 2107.35 1059.9 2042.13C1038.19 2036.29 1025.3 2013.93 1031.13 1992.22C1036.98 1970.51 1059.34 1957.63 1081.04 1963.46C1309.34 2024.81 1533.5 2023.77 1753.73 1963.97" fill="#000000" fill-rule="evenodd" opacity="1" stroke="none"/>
<path d="M1507.8 2259.16C1530.22 2257.56 1549.72 2274.47 1551.32 2296.9C1552.91 2319.32 1536 2338.81 1513.58 2340.41C1447 2345.14 1380.11 2344.85 1312.87 2339.45C1290.46 2337.64 1273.73 2317.99 1275.53 2295.59C1277.34 2273.18 1296.99 2256.45 1319.39 2258.25C1382.5 2263.32 1445.31 2263.6 1507.8 2259.16" fill="#000000" fill-rule="evenodd" opacity="1" stroke="none"/>
<path d="M1660.86 1404.76C1682.9 1400.36 1704.38 1414.68 1708.78 1436.73C1713.19 1458.77 1698.86 1480.25 1676.82 1484.65C1506.24 1518.72 1333.46 1519.74 1158.36 1486.15C1136.29 1481.91 1121.79 1460.55 1126.04 1438.48C1130.27 1416.4 1151.64 1401.91 1173.71 1406.14C1338.23 1437.71 1500.59 1436.8 1660.86 1404.76" fill="#000000" fill-rule="evenodd" opacity="1" stroke="none"/>
<path d="M1334.77 419.302C1347.99 437.488 1343.97 462.978 1325.8 476.204C1307.62 489.43 1282.13 485.411 1268.9 467.225C1200.23 372.86 1119.06 283.166 1018.86 200.614C1001.51 186.324 999.029 160.629 1013.32 143.284C1027.63 125.927 1053.31 123.45 1070.66 137.739C1176.47 224.94 1262.23 319.633 1334.77 419.302" fill="#000000" fill-rule="evenodd" opacity="1" stroke="none"/>
<path d="M986.688 0C1047.65 0 1097.14 49.4868 1097.14 110.452C1097.14 171.4 1047.65 220.893 986.688 220.893C925.739 220.893 876.247 171.4 876.247 110.452C876.247 49.4868 925.739 0 986.688 0" fill="#000000" fill-rule="evenodd" opacity="1" stroke="none"/>
<path d="M1565.98 467.225C1552.74 485.411 1527.25 489.43 1509.08 476.204C1490.9 462.978 1486.88 437.488 1500.11 419.302C1572.64 319.633 1658.39 224.929 1764.22 137.739C1781.56 123.45 1807.26 125.927 1821.55 143.284C1835.84 160.629 1833.36 186.324 1816.02 200.614C1715.83 283.166 1634.64 372.86 1565.98 467.225" fill="#000000" fill-rule="evenodd" opacity="1" stroke="none"/>
<path d="M1848.18 0C1787.23 0 1737.74 49.4868 1737.74 110.452C1737.74 171.4 1787.23 220.893 1848.18 220.893C1909.15 220.893 1958.64 171.4 1958.64 110.452C1958.64 49.4868 1909.15 0 1848.18 0" fill="#000000" fill-rule="evenodd" opacity="1" stroke="none"/>
</g>
</svg>
